<svg width="20" height="22" viewBox="0 0 20 22" fill="none" xmlns="http://www.w3.org/2000/svg">
<path d="M19.0677 4.09879L16.4828 1.38279C16.3004 1.19018 16.0837 1.03736 15.845 0.933099C15.6063 0.82884 15.3504 0.775203 15.092 0.775269C14.5653 0.775269 14.0702 0.992242 13.6988 1.38279L10.9173 4.30811C10.7342 4.49987 10.5889 4.72781 10.4897 4.97882C10.3906 5.22983 10.3396 5.49896 10.3397 5.77076C10.3397 6.32468 10.546 6.84542 10.9173 7.23597L12.9513 9.37507C12.4752 10.4787 11.8132 11.4827 10.9974 12.3387C10.1836 13.1988 9.22906 13.8974 8.17949 14.4012L6.14554 12.2621C5.9632 12.0695 5.74647 11.9167 5.5078 11.8124C5.26913 11.7081 5.01322 11.6545 4.75478 11.6546C4.22809 11.6546 3.73295 11.8715 3.3616 12.2621L0.577663 15.1849C0.394294 15.377 0.248856 15.6053 0.149719 15.8568C0.0505807 16.1083 -0.00030077 16.3778 1.33745e-06 16.6501C1.33745e-06 17.204 0.206309 17.7247 0.577663 18.1153L3.15772 20.8287C3.74995 21.4541 4.56789 21.8089 5.40769 21.8089C5.58487 21.8089 5.75477 21.7936 5.92224 21.763C9.19404 21.1963 12.4391 19.3661 15.058 16.6143C17.6745 13.8651 19.4123 10.4548 19.9584 7.00368C20.1235 5.94945 19.791 4.86458 19.0677 4.09879Z" fill="white"/>
</svg>
